<svg width="16" height="17" viewBox="0 0 16 17" fill="none" xmlns="http://www.w3.org/2000/svg">
<path d="M12.718 1.64103H10.8719V0.615385C10.8719 0.278974 10.5929 0 10.2565 0C9.92009 0 9.64111 0.278974 9.64111 0.615385V15.7949C9.64111 16.1313 9.92009 16.4103 10.2565 16.4103C10.5929 16.4103 10.8719 16.1313 10.8719 15.7949V14.7692H12.718C14.5314 14.7692 16.0001 13.3005 16.0001 11.4872V4.92308C16.0001 3.10974 14.5314 1.64103 12.718 1.64103Z" fill="#616161" fill-opacity="0.8"/>
<path d="M3.28205 1.64105C1.46872 1.64105 0 3.10977 0 4.9231V11.4872C0 13.3005 1.46872 14.7693 3.28205 14.7693H7.38462C7.8359 14.7693 8.20513 14.4 8.20513 13.9487V2.46157C8.20513 2.01028 7.8359 1.64105 7.38462 1.64105H3.28205ZM3.42154 8.51695C3.38051 8.61541 3.32308 8.70567 3.24923 8.78772C3.16718 8.86157 3.07692 8.919 2.97846 8.96003C2.88 9.00105 2.77333 9.02567 2.66667 9.02567C2.56 9.02567 2.45333 9.00105 2.35487 8.96003C2.25641 8.919 2.16615 8.86157 2.0841 8.78772C2.01026 8.70567 1.95282 8.61541 1.90359 8.51695C1.86256 8.41849 1.84615 8.31182 1.84615 8.20516C1.84615 7.99182 1.93641 7.77849 2.0841 7.62259C2.12513 7.58977 2.16615 7.55695 2.20718 7.52413C2.25641 7.49131 2.30564 7.46669 2.35487 7.45028C2.4041 7.42567 2.45333 7.40926 2.50256 7.40105C2.78154 7.34362 3.06051 7.43387 3.24923 7.62259C3.39692 7.77849 3.48718 7.99182 3.48718 8.20516C3.48718 8.31182 3.46256 8.41849 3.42154 8.51695ZM6.29333 8.51695C6.25231 8.61541 6.19487 8.70567 6.12103 8.78772C6.03897 8.86157 5.94872 8.919 5.85026 8.96003C5.7518 9.00105 5.64513 9.02567 5.53846 9.02567C5.4318 9.02567 5.32513 9.00105 5.22667 8.96003C5.12821 8.919 5.03795 8.86157 4.9559 8.78772C4.8 8.63182 4.71795 8.42669 4.71795 8.20516C4.71795 8.09849 4.74256 7.99182 4.78359 7.89336C4.82462 7.78669 4.88205 7.70464 4.9559 7.62259C5.25949 7.319 5.80923 7.319 6.12103 7.62259C6.26872 7.77849 6.35897 7.99182 6.35897 8.20516C6.35897 8.31182 6.33436 8.41849 6.29333 8.51695Z" fill="#616161" fill-opacity="0.8"/>
</svg>
