<svg width="40" height="40" viewBox="0 0 40 40" fill="none" xmlns="http://www.w3.org/2000/svg">
<circle cx="20" cy="20" r="20" fill="white"/>
<path d="M29 13L15 13M25 20L11 20M18 27L11 27M22 27H29" stroke="#588760" stroke-width="2.22222" stroke-linecap="round" stroke-linejoin="round"/>
<path d="M13 15C12.6044 15 12.2178 14.8827 11.8889 14.6629C11.56 14.4432 11.3036 14.1308 11.1522 13.7654C11.0009 13.3999 10.9613 12.9978 11.0384 12.6098C11.1156 12.2219 11.3061 11.8655 11.5858 11.5858C11.8655 11.3061 12.2219 11.1156 12.6098 11.0384C12.9978 10.9613 13.3999 11.0009 13.7654 11.1522C14.1308 11.3036 14.4432 11.56 14.6629 11.8889C14.8827 12.2178 15 12.6044 15 13C15 13.5304 14.7893 14.0391 14.4142 14.4142C14.0391 14.7893 13.5304 15 13 15ZM29 20C29 19.6044 28.8827 19.2178 28.6629 18.8889C28.4432 18.56 28.1308 18.3036 27.7654 18.1522C27.3999 18.0009 26.9978 17.9613 26.6098 18.0384C26.2219 18.1156 25.8655 18.3061 25.5858 18.5858C25.3061 18.8655 25.1156 19.2219 25.0384 19.6098C24.9613 19.9978 25.0009 20.3999 25.1522 20.7654C25.3036 21.1308 25.56 21.4432 25.8889 21.6629C26.2178 21.8827 26.6044 22 27 22C27.5304 22 28.0391 21.7893 28.4142 21.4142C28.7893 21.0391 29 20.5304 29 20ZM22 27C22 26.6044 21.8827 26.2178 21.6629 25.8889C21.4432 25.56 21.1308 25.3036 20.7654 25.1522C20.3999 25.0009 19.9978 24.9613 19.6098 25.0384C19.2219 25.1156 18.8655 25.3061 18.5858 25.5858C18.3061 25.8655 18.1156 26.2219 18.0384 26.6098C17.9613 26.9978 18.0009 27.3999 18.1522 27.7654C18.3036 28.1308 18.56 28.4432 18.8889 28.6629C19.2178 28.8827 19.6044 29 20 29C20.5304 29 21.0391 28.7893 21.4142 28.4142C21.7893 28.0391 22 27.5304 22 27Z" stroke="#FEBE43" stroke-width="2.22222" stroke-linecap="round" stroke-linejoin="round"/>
</svg>
