<svg xmlns="http://www.w3.org/2000/svg" xmlns:xlink="http://www.w3.org/1999/xlink" width="1080" zoomAndPan="magnify" viewBox="0 0 810 809.999993" height="1080" preserveAspectRatio="xMidYMid meet" version="1.0"><path fill="#ffd815" d="M 331.996094 555.277344 C 291.34375 564.839844 283.589844 572.59375 274.027344 613.246094 C 264.460938 572.59375 256.710938 564.839844 216.054688 555.277344 C 256.710938 545.714844 264.460938 537.960938 274.027344 497.308594 C 283.589844 537.960938 291.339844 545.714844 331.996094 555.277344 Z M 331.996094 555.277344 " fill-opacity="1" fill-rule="nonzero"/><path fill="#ffd815" d="M 728.925781 404.964844 C 429.347656 418.429688 418.429688 429.347656 404.964844 728.925781 C 391.496094 429.347656 380.582031 418.429688 81 404.964844 C 380.582031 391.496094 391.496094 380.582031 404.964844 81 C 418.429688 380.582031 429.347656 391.496094 728.925781 404.964844 Z M 728.925781 404.964844 " fill-opacity="1" fill-rule="nonzero"/><path fill="#ffd815" d="M 331.816406 233.859375 C 264.910156 236.867188 262.472656 239.304688 259.464844 306.207031 C 256.460938 239.304688 254.019531 236.867188 187.117188 233.859375 C 254.023438 230.851562 256.460938 228.414062 259.464844 161.507812 C 262.472656 228.414062 264.914062 230.851562 331.816406 233.859375 Z M 331.816406 233.859375 " fill-opacity="1" fill-rule="nonzero"/><path fill="#ffd815" d="M 695.097656 227.726562 C 596.851562 232.144531 593.269531 235.722656 588.851562 333.972656 C 584.4375 235.722656 580.855469 232.144531 482.609375 227.726562 C 580.855469 223.3125 584.433594 219.730469 588.851562 121.484375 C 593.269531 219.730469 596.851562 223.3125 695.097656 227.726562 Z M 695.097656 227.726562 " fill-opacity="1" fill-rule="nonzero"/><path fill="#ffd815" d="M 695.097656 155.378906 C 668.335938 156.582031 667.359375 157.554688 666.160156 184.316406 C 664.957031 157.554688 663.980469 156.582031 637.21875 155.378906 C 663.980469 154.175781 664.957031 153.199219 666.160156 126.4375 C 667.359375 153.199219 668.335938 154.175781 695.097656 155.378906 Z M 695.097656 155.378906 " fill-opacity="1" fill-rule="nonzero"/><path fill="#ffd815" d="M 528.1875 121.484375 C 501.425781 122.6875 500.449219 123.664062 499.246094 150.425781 C 498.046875 123.664062 497.070312 122.6875 470.308594 121.484375 C 497.070312 120.28125 498.046875 119.304688 499.246094 92.542969 C 500.449219 119.304688 501.425781 120.28125 528.1875 121.484375 Z M 528.1875 121.484375 " fill-opacity="1" fill-rule="nonzero"/></svg>